<svg id="Capa_1" enable-background="new 0 0 512 512" height="512" viewBox="0 0 512 512" width="512" xmlns="http://www.w3.org/2000/svg"><g><path d="m241.02 0h30v471.87h-30z" fill="#5f52b1"/><path d="m256 0h15.02v471.87h-15.02z" fill="#453b85"/><path d="m256.022 20.212c-105.555-.27-191.125 87.881-188.022 193.599 12.475 11.169 28.944 17.968 47.005 17.968 17.624.049 35.522-7.42 47.006-17.968.013.012.026.022.039.034v-.034c0 .034 93.972-193.599 93.972-193.599z" fill="#ff3d58"/><path d="m256.023 20.212s94.01 193.599 93.972 193.599v.033c.013-.011.026-.022.039-.033 12.475 11.169 28.944 17.968 47.005 17.968 18.062 0 34.53-6.799 47.005-17.968 3.129-105.608-82.194-193.719-188.021-193.599z" fill="#e50057"/><path d="m349.99 213.81v.03c-6.23 5.58-13.47 10.06-21.39 13.15-7.93 3.09-16.55 4.79-25.57 4.79-18.06 0-34.53-6.8-47.01-17.97-.01.01-.01.01-.02.02-6.24 5.58-13.46 10.06-21.38 13.15-7.94 3.1-16.57 4.8-25.6 4.8-18.05 0-34.5-6.79-46.97-17.94v-.03c-1.55-105.71 41.21-193.85 93.95-193.6h.02c52.89-.12 95.54 87.99 93.97 193.6z" fill="#e50057"/><path d="m349.99 213.81v.03c-6.23 5.58-13.47 10.06-21.39 13.15-7.93 3.09-16.55 4.79-25.57 4.79-18.06 0-34.53-6.8-47.01-17.97-.01.01-.01.01-.02.02v-193.62h.02c52.89-.12 95.54 87.99 93.97 193.6z" fill="#c3046b"/><path d="m256.022 448c37.616 0 74.39-11.134 105.689-32 31.298-20.866 68.073-32 105.689-32h44.6v64l-83.427 20.304z" fill="#f2aa35"/><path d="m512 448v64h-512v-128h44.64c37.62 0 74.39 11.13 105.69 32 15.65 10.44 32.67 18.44 50.48 23.83 17.8 5.39 36.4 8.17 55.19 8.17h.02z" fill="#ffdc00"/><g fill="#ffc000"><path d="m512 448v64h-256v-64h.02z"/><path d="m60.25 431.75h30v30h-30z"/></g></g></svg>